<svg width="1280" height="760" viewBox="0 0 1280 760" fill="none" xmlns="http://www.w3.org/2000/svg">
  <rect width="1280" height="760" fill="#F8FAFC"/>
  <rect x="122" y="126" width="1036" height="506" rx="36" fill="#FFFFFF"/>
  <path d="M640 176C747 176 834 263 834 370H446C446 263 533 176 640 176Z" fill="#1E3A5F"/>
  <rect x="422" y="370" width="436" height="212" rx="24" fill="#1E3A5F"/>
  <rect x="590" y="432" width="100" height="150" rx="50" fill="#F8FAFC"/>
  <path d="M278 282C336 282 384 330 384 388V582H172V388C172 330 220 282 278 282Z" fill="#2B5EA7"/>
  <path d="M1002 282C1060 282 1108 330 1108 388V582H896V388C896 330 944 282 1002 282Z" fill="#2B5EA7"/>
  <circle cx="640" cy="140" r="34" fill="#C9A84C"/>
  <circle cx="278" cy="246" r="24" fill="#C9A84C"/>
  <circle cx="1002" cy="246" r="24" fill="#C9A84C"/>
  <rect x="172" y="632" width="936" height="28" rx="14" fill="#C9A84C"/>
</svg>
